<svg id="logo-svg" data-name="logo" viewBox="0 0 1619.5 386.56" xmlns="http://www.w3.org/2000/svg">
        <path transform="translate(-16.74 5.69)" d="M96.82,65.93c18.46,0,33,4.16,43.68,12.74,10.92,8.84,16.64,21.84,16.64,39a46.25,46.25,0,0,1-8.58,27.56c-6.24,8.32-14.56,13.52-25.22,16.12v.52C141,165.77,150.9,177,153,195.67l2.86,28.59c1,11.44,4.42,20.54,9.88,27.3H142.58c-4.16-6.24-6.76-14.3-7.54-24.7l-2.34-24.7c-1-10.91-4.94-19-11.7-23.66-6.24-4.67-15.08-6.75-26.78-6.75H38.06v79.81H16.74V65.93ZM38.06,153.29H94.22c13.52,0,24.18-3.38,31.46-9.62,6.5-6,9.88-14.3,9.88-25.22,0-11.44-3.38-20-9.62-25.48-6.76-5.72-17.42-8.58-31.72-8.58H38.06Z" fill="#fff"></path>
        <path transform="translate(-16.74 5.69)" d="M324.06,65.93V84.39H213.82v62.14h104V165h-104V233.1H328.48v18.46h-136V65.93Z" fill="#fff"></path>
        <path transform="translate(-16.74 5.69)" d="M384.64,65.93,453.8,224.26h.78l68.9-158.33H550V251.56H528.68V103.89h-.78L463.68,251.56H444.44L380.22,103.89h-.78V251.56H358.12V65.93Z" fill="#fff"></path>
        <path transform="translate(-16.74 5.69)" d="m691.69 77.11c10.92 9.88 16.64 23.14 16.64 39.26s-6.24 30.68-18.2 43.68c-6.5 6.76-19.24 16.9-38.48 29.89-23.65 15.86-37.17 30.16-40.55 42.64h97.49v19h-123.75c0-16.9 6-32.24 18.46-46 7.28-8.32 20.53-19.5 40.29-33 14.56-10.41 24.18-17.94 29.12-23.14 9.36-10.14 14.3-21.32 14.3-33.28 0-11.44-3.38-20-10.14-26.26s-16.38-9.36-28.34-9.36c-12.74 0-22.61 4.16-29.37 13-7.28 8.32-11.18 20.8-11.44 37.18h-21.32c0-20.8 6-37.44 17.42-49.66 11.44-12.48 26.78-18.72 45.49-18.72 17.16-0.05 31.2 4.89 42.38 14.77z" fill="#fff"></path>
        <path transform="translate(-16.74 5.69)" d="M844.57,65.93V192h30.16v17.42H844.57v42.12H824.29V209.44H731V189.17l93.6-123.24ZM748.89,192h75.4V93.75h-.78Z" fill="#fff"></path>
        <path transform="translate(-16.74 5.69)" d="M1391.06,65.93c17.16,0,30.94,4.16,41.08,12.48Q1447,90.89,1447,112.73c0,10.4-2.87,19.5-8.32,27A49.35,49.35,0,0,1,1416,154.59c12.22,2.07,21.58,7.27,28.34,15.07s10.39,17.68,10.39,30.16c0,18.2-6.5,31.72-19.23,40.56-10.92,7.28-26,11.18-45,11.18h-82.42V65.93Zm-61.62,81.12h56.42c13,0,22.88-2.86,29.64-8.06,6.76-5.46,10.4-13.52,10.4-24.18q0-15.6-10.14-23.4c-6.76-5.2-16.64-7.54-29.64-7.54h-56.68Zm0,86.57h59.28c13,0,23.14-2.6,30.94-7.28,9.1-5.72,13.78-14.82,13.78-26.78s-4.16-20.8-12-26.52c-7.54-5.72-18.46-8.31-32.76-8.31h-59.28Z" fill="#fff"></path>
        <path transform="translate(-16.74 5.69)" d="m1492.4 65.93 59 90.47 59-90.47h25.74l-74.1 110.23v75.4h-21.32v-75.4l-74.1-110.23z" fill="#fff"></path>
        <rect transform="translate(169.41 778.94) rotate(-42.47)" x="987.45" y="46.45" width="201.27" height="201.27" fill="#dc3645" stroke="#dc3645" stroke-miterlimit="10" stroke-width="15px"></rect>
        <path transform="translate(-16.74 5.69)" d="M51.58,311.71q23.37,0,23.37,20c0,13.39-7.88,20.14-23.46,20.14H31.63v27.74H23.84V311.71ZM31.63,345.05H51.11c5.51,0,9.5-1.14,12.16-3.32s3.89-5.51,3.89-10.07-1.33-7.89-4-9.88c-2.66-2.28-6.65-3.33-12.06-3.33H31.63Z" fill="#fff"></path>
        <path transform="translate(-16.74 5.69)" d="m122 337.07c3.61 4.75 5.51 11.5 5.7 20.05h-38.78c0.38 5.51 1.8 9.78 4.46 12.82s6.37 4.56 11 4.56a15.23 15.23 0 0 0 9.79-3 17.19 17.19 0 0 0 4.94-7.69h7.6a22.21 22.21 0 0 1-6.65 11.59c-4.09 3.61-9.31 5.51-15.68 5.51-7 0-12.73-2.38-16.91-6.94-4.37-4.75-6.46-11-6.46-19 0-7.22 2-13.3 6.18-18.14 4.18-5.13 9.78-7.7 16.91-7.7 7.9-0.04 13.9 2.62 17.9 7.94zm-28.22 2.66c-2.66 2.85-4.18 6.65-4.65 11.5h30.68c-1-10.55-6.17-15.77-15.48-15.77a13.75 13.75 0 0 0-10.57 4.27z" fill="#fff"></path>
        <path transform="translate(-16.74 5.69)" d="M146.68,330.42l18.71,41h.19l18.72-41h10.07v49.12h-7.6V341.82h-.29l-17.29,37.72h-7.41l-17.29-37.72h-.28v37.72h-7.6V330.42Z" fill="#fff"></path>
        <path transform="translate(-16.74 5.69)" d="m245.67 336.69c4.18 4.85 6.27 10.93 6.27 18.34s-2.09 13.39-6.18 18.14q-6.69 7.69-17.67 7.7c-7.41 0-13.2-2.57-17.57-7.7-4.18-4.75-6.27-10.83-6.27-18.14s2.09-13.49 6.27-18.34c4.37-5.13 10.16-7.6 17.57-7.6s13.21 2.47 17.58 7.6zm-29.74 4.75c-2.66 3.61-3.89 8.08-3.89 13.59s1.23 9.88 3.89 13.49c2.85 4 6.94 6 12.16 6a14.62 14.62 0 0 0 12.26-6 22.89 22.89 0 0 0 3.89-13.52c0-5.51-1.33-10-3.89-13.59a14.62 14.62 0 0 0-12.26-6c-5.22 0.05-9.31 2.04-12.16 6.03z" fill="#fff"></path>
        <path transform="translate(-16.74 5.69)" d="m269.42 330.42v20.24h26.41v-20.24h7.6v49.12h-7.6v-22.61h-26.41v22.61h-7.6v-49.12z" fill="#fff"></path>
        <path transform="translate(-16.74 5.69)" d="M354.16,330.42v6.37H336.58v42.75H329V336.79H311.4v-6.37Z" fill="#fff"></path>
        <path transform="translate(-16.74 5.69)" d="m436.42 314.56a14.25 14.25 0 0 1-4.56 4.08 27.81 27.81 0 0 1-10.26 2.57c-12.35 1-19.57 7.6-21.66 19.57a18.29 18.29 0 0 1 6.84-6.08 19 19 0 0 1 9.31-2.28c6.65 0 12.07 2.18 16.15 6.74 3.8 4.37 5.8 10.17 5.8 17.2a25.83 25.83 0 0 1-6.04 17.38 21.18 21.18 0 0 1-16.44 7.13q-10.54 0-17.1-7.13c-4.37-4.84-6.55-11.3-6.55-19.28q0-16.24 6-26.22c4.47-7.6 11.21-11.88 20.14-12.92a43.17 43.17 0 0 0 8.55-1.81 10 10 0 0 0 4.47-3.13zm-32.68 29.35a18.06 18.06 0 0 0-4.08 12.09q0 8.26 4 13.39a13.76 13.76 0 0 0 11.34 5.11 14.26 14.26 0 0 0 11.21-4.94c2.76-3.42 4.18-7.79 4.18-13.2s-1.42-9.5-4.08-12.73a13.94 13.94 0 0 0-11.21-4.85 13.79 13.79 0 0 0-11.36 5.13z" fill="#fff"></path>
        <path transform="translate(-16.74 5.69)" d="M455.52,330.42v18h12.92c5.32,0,9.5,1.33,12.54,4.08s4.46,6.56,4.46,11.31-1.52,8.74-4.37,11.59c-3,2.75-7.22,4.18-12.63,4.18H447.92V330.42Zm0,42.75h11.4c3.51,0,6.17-.85,8.07-2.47a8.77,8.77,0,0,0,2.76-6.93q0-4.56-2.85-6.84t-8-2.28h-11.4Zm47.59-42.75v49.12h-7.5V330.42Z" fill="#fff"></path>
        <path transform="translate(-16.74 5.69)" d="m553.84 330.42v6.37h-17.57v42.75h-7.6v-42.75h-17.58v-6.37z" fill="#fff"></path>
        <path transform="translate(-16.74 5.69)" d="m601.34 336.69c4.18 4.85 6.27 10.93 6.27 18.34s-2.09 13.39-6.17 18.14q-6.71 7.69-17.67 7.7c-7.41 0-13.21-2.57-17.58-7.7-4.18-4.75-6.27-10.83-6.27-18.14s2.09-13.49 6.27-18.34c4.37-5.13 10.17-7.6 17.58-7.6s13.23 2.47 17.57 7.6zm-29.73 4.75c-2.66 3.61-3.9 8.08-3.9 13.59s1.24 9.88 3.9 13.49c2.85 4 6.93 6 12.16 6a14.6 14.6 0 0 0 12.25-6 22.83 22.83 0 0 0 3.9-13.49c0-5.51-1.33-10-3.9-13.59a14.6 14.6 0 0 0-12.25-6c-5.23 0.02-9.31 2.01-12.16 6z" fill="#fff"></path>
        <path transform="translate(-16.74 5.69)" d="M642.1,330.42c4.56,0,8.07.86,10.64,2.66,2.85,2,4.37,5.13,4.37,9.41,0,5.51-3,9.31-8.74,11.21,7,2.09,10.54,6.08,10.54,11.78,0,4.56-1.42,8-4.27,10.35-3,2.47-7.41,3.71-13.3,3.71H617.49V330.42Zm-17,20.81h14.54a14.49,14.49,0,0,0,7.6-1.81,6.5,6.5,0,0,0,3-5.7c0-4.84-3.33-7.22-9.79-7.22H625.09Zm0,22.23h15.58c4.37,0,7.41-.86,9.22-2.47a7.76,7.76,0,0,0,2.18-5.89c0-5.32-4.18-8-12.35-8H625.09Z" fill="#fff"></path>
        <path transform="translate(-16.74 5.69)" d="m708.31 336.69c4.18 4.85 6.27 10.93 6.27 18.34s-2.09 13.39-6.18 18.14q-6.69 7.69-17.67 7.7c-7.41 0-13.2-2.57-17.57-7.7-4.18-4.75-6.27-10.83-6.27-18.14s2.09-13.49 6.27-18.34c4.37-5.13 10.16-7.6 17.57-7.6s13.21 2.47 17.58 7.6zm-29.74 4.75c-2.66 3.61-3.89 8.08-3.89 13.59s1.23 9.88 3.89 13.49c2.85 4 6.94 6 12.16 6a14.62 14.62 0 0 0 12.26-6 22.82 22.82 0 0 0 3.89-13.52c0-5.51-1.32-10-3.89-13.59a14.62 14.62 0 0 0-12.26-6c-5.22 0.05-9.31 2.04-12.16 6.03z" fill="#fff"></path>
        <path transform="translate(-16.74 5.69)" d="M732.06,330.42v38.19l26.41-38.19h8.17v49.12H759V341.35l-26.41,38.19h-8.17V330.42Zm4.18-19c.38,2.85,1.33,4.85,2.75,6.08a11.32,11.32,0,0,0,13.11,0c1.43-1.23,2.38-3.23,2.85-6.08h5.89c-.57,4.18-2,7.22-4.27,9.22-2.47,2.09-6.08,3.23-10.93,3.23s-8.64-1.14-10.92-3.23-3.8-5.14-4.37-9.22Z" fill="#fff"></path>
        <path transform="translate(-16.74 5.69)" d="m849 330.42v6.37h-17.57v42.75h-7.6v-42.75h-17.58v-6.37z" fill="#fff"></path>
        <path transform="translate(-16.74 5.69)" d="m895.08 337.07c3.61 4.75 5.51 11.5 5.7 20.05h-38.78c0.38 5.51 1.8 9.78 4.46 12.82s6.37 4.56 11 4.56a15.23 15.23 0 0 0 9.79-3 17.19 17.19 0 0 0 4.94-7.69h7.6a22.21 22.21 0 0 1-6.65 11.59c-4.09 3.61-9.31 5.51-15.68 5.51-7 0-12.73-2.38-16.91-6.94-4.37-4.75-6.46-11-6.46-19 0-7.22 2-13.3 6.18-18.14 4.18-5.13 9.78-7.7 16.91-7.7 7.92-0.04 13.91 2.62 17.9 7.94zm-28.22 2.66c-2.66 2.85-4.18 6.65-4.65 11.5h30.68c-0.95-10.55-6.17-15.77-15.48-15.77a13.75 13.75 0 0 0-10.55 4.27z" fill="#fff"></path>
        <path transform="translate(-16.74 5.69)" d="M915.31,330.42,928,347.9l12.64-17.48h8.93l-17.39,23.09,19.48,26h-9L928,359.11l-14.72,20.43h-9l19.48-26-17.39-23.09Z" fill="#fff"></path>
        <path transform="translate(-16.74 5.69)" d="m965.66 330.42v20.24h26.41v-20.24h7.6v49.12h-7.6v-22.61h-26.41v22.61h-7.6v-49.12z" fill="#fff"></path>
        <path transform="translate(-16.74 5.69)" d="m1021 330.42v38.19l26.41-38.19h8.17v49.12h-7.6v-38.19l-26.41 38.19h-8.17v-49.12z" fill="#fff"></path>
        <path transform="translate(-16.74 5.69)" d="M1074.91,330.42V351.8c6.93-.29,12.25-2,15.86-5.13,3.9-3.42,6.46-8.84,7.6-16.25h7.89c-1.52,9.69-4.94,16.63-10.17,21-.66.47-1.33.95-1.9,1.42l15,26.7h-8.93l-12.82-23.47a48.14,48.14,0,0,1-12.54,2v21.47h-7.6V330.42Z" fill="#fff"></path>
        <path transform="translate(-16.74 5.69)" d="m1124.8 330.42v38.19l26.41-38.19h8.17v49.12h-7.6v-38.19l-26.41 38.19h-8.17v-49.12z" fill="#fff"></path>
        <path transform="translate(-16.74 5.69)" d="M1227.38,330.42c4.56,0,8.08.86,10.64,2.66,2.85,2,4.37,5.13,4.37,9.41,0,5.51-2.94,9.31-8.74,11.21,7,2.09,10.55,6.08,10.55,11.78,0,4.56-1.43,8-4.28,10.35-3,2.47-7.41,3.71-13.3,3.71h-23.84V330.42Zm-17,20.81h14.53a14.49,14.49,0,0,0,7.6-1.81,6.48,6.48,0,0,0,3-5.7c0-4.84-3.32-7.22-9.78-7.22h-15.39Zm0,22.23H1226c4.37,0,7.41-.86,9.21-2.47a7.73,7.73,0,0,0,2.19-5.89c0-5.32-4.18-8-12.35-8h-14.63Z" fill="#fff"></path>
        <path transform="translate(-16.74 5.69)" d="M1296.35,311.71l25.27,57.85h.29l25.17-57.85h9.69v67.83H1349v-54h-.28l-23.47,54h-7l-23.46-54h-.29v54h-7.79V311.71Z" fill="#fff"></path>
        <path transform="translate(-16.74 5.69)" d="m1377.1 330.42v38.19l26.41-38.19h8.17v49.12h-7.6v-38.19l-26.41 38.19h-8.17v-49.12z" fill="#fff"></path>
        <path transform="translate(-16.74 5.69)" d="m1431.1 330.42v20.24h26.41v-20.24h7.6v49.12h-7.6v-22.61h-26.41v22.61h-7.6v-49.12z" fill="#fff"></path>
        <path transform="translate(-16.74 5.69)" d="m1512.7 333.37c3.8 2.94 6.08 7.41 6.94 13.39h-7.51q-1-5.7-4.56-8.55c-2.47-1.9-5.6-2.75-9.5-2.75a13.47 13.47 0 0 0-11.3 5.41q-4 5.28-4 14.25c0 6 1.23 10.74 3.89 14.16s6.37 5.22 11.31 5.22c8.36 0 13.2-4.27 14.34-12.73h7.6c-1.14 6.27-3.51 11.12-7.31 14.35s-8.55 4.75-14.63 4.75c-7.41 0-13.11-2.47-17.2-7.41-3.89-4.66-5.79-10.74-5.79-18.24s1.9-13.59 5.79-18.34c4.18-5.22 10-7.79 17.29-7.79 6.09 0 10.98 1.43 14.64 4.28z" fill="#fff"></path>
        <path transform="translate(-16.74 5.69)" d="M1536.41,330.42V351.8c6.94-.29,12.26-2,15.87-5.13,3.89-3.42,6.46-8.84,7.6-16.25h7.88c-1.52,9.69-4.94,16.63-10.16,21-.67.47-1.33.95-1.9,1.42l15,26.7h-8.93L1549,356.07a48.14,48.14,0,0,1-12.54,2v21.47h-7.6V330.42Z" fill="#fff"></path>
        <path transform="translate(-16.74 5.69)" d="m1616.8 337.07c3.61 4.75 5.51 11.5 5.7 20.05h-38.76c0.38 5.51 1.81 9.78 4.47 12.82s6.36 4.56 11 4.56a15.2 15.2 0 0 0 9.78-3 17.1 17.1 0 0 0 4.94-7.69h7.6a22.14 22.14 0 0 1-6.65 11.59c-4.08 3.61-9.31 5.51-15.67 5.51-7 0-12.73-2.38-16.91-6.94-4.37-4.75-6.46-11-6.46-19 0-7.22 2-13.3 6.17-18.14 4.18-5.13 9.79-7.7 16.91-7.7 7.91-0.04 13.89 2.62 17.88 7.94zm-28.21 2.66c-2.66 2.85-4.18 6.65-4.66 11.5h30.69c-0.95-10.55-6.18-15.77-15.49-15.77a13.73 13.73 0 0 0-10.54 4.27z" fill="#fff"></path>
        <path transform="translate(-16.74 5.69)" d="M1131.91,136.28a10.1,10.1,0,0,0-2.38-5.43,9.85,9.85,0,0,0-14-1l-26.29,23c-.64.57-1.17.79-1.57.67-1.12-.35-2.35-2.93-2.79-4.66a2.17,2.17,0,0,0-.17-.42c-.35-.62-.65-1.2-.94-1.76-2.06-3.95-3.55-6.81-14.79-16-6.85-5.61-12-3.29-14.4-1.41-4,3.07-6.33,9.48-4.74,12.92,1.28,2.79,4.46,6,7.53,9a48.27,48.27,0,0,1,5,5.43c13,18.55,9.15,23.1,5.1,27.91-.17.2-.47.53-1,1l-1.48-1.7c-1.68-1.92-4.83-1.64-7.48.68L1044,196.3c-2.49,2.17-4,5.67-2.17,7.75L1081,249c1.82,2.08,5.86,1.3,8.25-.79l13.49-11.77c2.45-2.14,3.1-5.56,1.47-7.55a18.24,18.24,0,0,0,2.9-1c4.5-2.1,10.62-6.8,17-12.41,14.94-13,31.51-31,33-32.61a10.19,10.19,0,0,0,.9-14.3c-1.4-1.6-3.75-4.3-6.64-4.84a10.17,10.17,0,0,0-7-13.11,10.16,10.16,0,0,0-12.56-14.33Zm-30.4,94.87c.21.25.18,1.53-1.07,2.62L1087,245.54a4.17,4.17,0,0,1-3.27,1.09l-39.12-44.84a4.79,4.79,0,0,1,1.76-2.81l13.49-11.77c1.29-1.13,2.35-1.15,2.46-1Zm38.43-80.42-.06.05a1.78,1.78,0,0,0,1.64,3.05,6.62,6.62,0,0,1,4.67,11.6,1.78,1.78,0,0,0,2.33,2.68c1.8-1.56,3.15-1.52,6.91,2.78a6.64,6.64,0,0,1-.64,9.36l-.14.13c-.34.38-34.51,37.49-49,44.28a19.79,19.79,0,0,1-4,1.22l-32.85-37.65a17,17,0,0,0,1.38-1.43c5.64-6.7,8.6-12.94-4.9-32.23a50.07,50.07,0,0,0-5.4-5.91c-2.72-2.72-5.8-5.79-6.81-8-.65-1.42.48-6.14,3.69-8.63,2.84-2.19,6.19-1.74,10,1.35,10.67,8.73,12,11.32,13.89,14.9.27.52.55,1.06.87,1.64.39,1.39,1.88,5.93,5.13,6.94,1.13.35,2.92.4,5-1.38l26.29-23a6.25,6.25,0,0,1,9,.66,6.71,6.71,0,0,1,1.44,5.77,1.77,1.77,0,0,0,2.48,2.08l.1,0,.16-.11a1.7,1.7,0,0,1,.14-.1,6.63,6.63,0,0,1,8.77,9.94Z" fill="#fff" stroke="#fff" stroke-miterlimit="10" stroke-width="7px"></path>
        <path transform="translate(-16.74 5.69)" d="M1097,54.75a1.79,1.79,0,0,0-1.7.29,1.77,1.77,0,0,0-.66,1.59l3.23,28.06-20.64,2.38-3.33-28.88a1.78,1.78,0,0,0-2.62-1.36,31.62,31.62,0,0,0,3.61,57.17l2,17.71a1.78,1.78,0,0,0,3.54-.41l-2.17-18.78a1.77,1.77,0,0,0-1.17-1.48,28.06,28.06,0,0,1-6.43-49.68l3.21,27.88a1.77,1.77,0,0,0,2,1.56L1100,88a1.88,1.88,0,0,0,1.19-.66,1.81,1.81,0,0,0,.37-1.31l-3.09-26.83a28.08,28.08,0,0,1,3.07,49,1.77,1.77,0,0,0-.81,1.7l2.68,23.22a1.78,1.78,0,0,0,2,1.56,1.73,1.73,0,0,0,1-.43,1.76,1.76,0,0,0,.6-1.54l-2.55-22.14A31.64,31.64,0,0,0,1097,54.75Z" fill="#fff" stroke="#fff" stroke-miterlimit="10" stroke-width="7px"></path>
      </svg>